<svg width="88" height="37" viewBox="0 0 88 37" xmlns="http://www.w3.org/2000/svg" xmlns:xlink="http://www.w3.org/1999/xlink"><title>Artboard 10</title><defs><path id="a" d="M.2 36.627h86.6V.115H.2"/></defs><g fill="none" fill-rule="evenodd"><path d="M47.635 1.87v-.455h-9.99v.454c.364.03.773.105 1.227.226.454.09.878.242 1.27.454.394.18.728.423 1 .726.272.272.41.635.41 1.09 0 .302-.032.772-.092 1.407-.06.636-.303 1.65-.727 3.042-.332 1.09-.71 2.27-1.135 3.542-.393 1.24-.802 2.496-1.226 3.767-.394 1.242-.802 2.467-1.225 3.678-.395 1.21-.773 2.316-1.136 3.315-.332.97-.62 1.8-.862 2.496-.21.666-.363 1.106-.454 1.318-.212-.574-.56-1.498-1.044-2.77-.454-1.3-.968-2.753-1.544-4.358-.576-1.635-1.18-3.33-1.816-5.084-.636-1.756-1.21-3.376-1.726-4.86-.514-1.512-.94-2.783-1.27-3.813-.334-1.06-.5-1.68-.5-1.86 0-.455.18-.833.544-1.136.394-.304.818-.53 1.272-.682.484-.182.953-.303 1.407-.363.485-.06.817-.106 1-.136v-.455H16.804v.5c.726.03 1.347.135 1.86.316.516.153.94.365 1.273.637.363.242.635.5.817.772.212.27.38.53.5.77.423.88.817 1.787 1.18 2.725.364.908.772 1.967 1.226 3.18-.666 2.087-1.332 4.1-1.998 6.037-.665 1.906-1.272 3.632-1.816 5.175-.545 1.514-1 2.786-1.362 3.815-.364 1-.59 1.62-.68 1.86-.334-.907-.774-2.057-1.318-3.45-.544-1.422-1.135-2.936-1.77-4.54-.607-1.634-1.227-3.284-1.863-4.95-.605-1.664-1.165-3.192-1.68-4.584C10.66 8.255 10.235 7.06 9.9 6.09c-.3-.998-.452-1.634-.452-1.906 0-.514.136-.923.41-1.226.3-.303.65-.53 1.043-.68.395-.152.773-.26 1.136-.32.363-.06.62-.09.772-.09v-.453H.2v.5c.666.03 1.014.15 1.438.362.424.182.787.41 1.09.68.303.243.53.5.68.773.182.272.318.5.41.68.18.364.347.712.498 1.045.152.333.288.68.41 1.044.15.363.302.756.454 1.18.18.424.378.923.59 1.498.727 1.907 1.453 3.83 2.18 5.766.726 1.907 1.467 3.89 2.225 5.948.787 2.028 1.588 4.147 2.406 6.356l2.68 6.992h.545l1.998-4.45 1.59-4.403c.544-1.544 1.09-3.103 1.634-4.677.545-1.574 1.09-3.117 1.635-4.63.544-1.544 1.06-3.013 1.543-4.404.636 1.694 1.256 3.42 1.862 5.175.605 1.726 1.226 3.512 1.86 5.36.667 1.845 1.348 3.767 2.045 5.765.727 1.998 1.498 4.086 2.316 6.265h.454l1.907-4.358c.574-1.726 1.194-3.54 1.86-5.45.667-1.936 1.317-3.858 1.953-5.765.666-1.906 1.317-3.753 1.953-5.54.635-1.815 1.195-3.465 1.68-4.948.302-.878.59-1.604.863-2.18.27-.605.528-1.09.77-1.452.243-.394.454-.697.636-.91.18-.21.318-.362.41-.453.09-.12.392-.348.907-.68.545-.334 1.195-.546 1.952-.636" fill="#FFF101"/><path d="M52.713 14.84c0 .424-.06.74-.182.953-.09.212-.24.44-.453.682-.303.12-.65.196-1.044.227-.394.03-.818.045-1.272.045-.694 0-1.33.015-1.906.046-.575 0-1.135.015-1.68.045h-3.45c.06-.363.226-.878.5-1.544.27-.696.65-1.377 1.134-2.043.515-.665 1.105-1.24 1.77-1.724.697-.514 1.47-.772 2.317-.772 1.302 0 2.33.41 3.087 1.226.787.787 1.18 1.74 1.18 2.86m4.86 10.17l-.364-.09c-.363 1.12-1.12 2.073-2.27 2.86-1.12.757-2.437 1.135-3.95 1.135-1.393 0-2.62-.257-3.68-.772-1.058-.515-1.936-1.21-2.632-2.088-.697-.908-1.226-1.938-1.59-3.088-.363-1.18-.545-2.407-.545-3.678 0-.333.016-.65.047-.954.03-.332.045-.62.045-.862h14.576c-.09-1.27-.378-2.377-.863-3.314-.484-.94-1.12-1.71-1.906-2.316-.76-.636-1.667-1.105-2.726-1.408-1.03-.302-2.134-.454-3.315-.454-1.454 0-2.786.318-3.997.954-1.18.605-2.194 1.407-3.042 2.406-.816 1-1.452 2.134-1.906 3.405-.455 1.24-.68 2.497-.68 3.77 0 1.573.24 3.07.725 4.493.483 1.393 1.164 2.618 2.042 3.678.91 1.03 1.998 1.83 3.27 2.407 1.272.575 2.68.86 4.223.86 1.24 0 2.36-.225 3.36-.68 1.03-.453 1.907-1.028 2.634-1.724.725-.695 1.3-1.453 1.724-2.27.424-.847.696-1.604.818-2.27" fill="#FFF101"/><path d="M74.63 29.748c0 1.302-.408 2.422-1.225 3.36-.787.938-1.71 1.62-2.77 2.043-.515.183-1.105.32-1.77.41-.637.09-1.408.136-2.317.136-.756 0-1.59-.12-2.497-.363-.877-.243-1.71-.62-2.497-1.136-.787-.484-1.452-1.09-1.998-1.816-.514-.725-.772-1.572-.772-2.54 0-.94.273-1.802.818-2.59.545-.785 1.53-1.36 2.953-1.724.423-.06.968-.122 1.634-.18.666-.06 1.317-.092 1.953-.092 1.755 0 3.133.06 4.132.18 1 .152 1.83.395 2.497.728.514.24.953.68 1.316 1.316.363.636.545 1.393.545 2.27m-3.995-19.75c0 .848-.106 1.666-.318 2.453-.212.757-.53 1.438-.953 2.044-.424.605-.954 1.09-1.59 1.452-.605.364-1.316.545-2.134.545-1.332 0-2.467-.544-3.405-1.633-.91-1.12-1.362-2.588-1.362-4.404 0-.787.105-1.56.317-2.315.212-.757.515-1.423.908-2 .424-.604.94-1.073 1.545-1.405.605-.364 1.286-.546 2.043-.546.817 0 1.528.167 2.134.5.635.303 1.15.726 1.544 1.27.424.516.74 1.12.953 1.817.212.696.318 1.438.318 2.225m8.4-4.042c0-.514-.166-.953-.5-1.316-.332-.364-.756-.546-1.27-.546-.364 0-.682.06-.954.182-.272.09-.53.212-.77.364-.244.12-.516.242-.82.363-.27.09-.59.136-.952.136-.363 0-.68-.014-.953-.044-.243-.03-.546-.106-.91-.228-.967-.514-1.906-.877-2.814-1.09-.877-.21-1.89-.317-3.04-.317-1.273 0-2.453.183-3.543.546-1.06.363-1.983.862-2.77 1.498-.787.606-1.407 1.332-1.862 2.18-.423.847-.635 1.756-.635 2.724 0 1.544.363 2.814 1.09 3.814.756.998 1.8 1.755 3.133 2.27v.136c-.757.09-1.47.287-2.134.59-.637.272-1.197.62-1.68 1.044-.485.424-.864.893-1.137 1.408-.272.514-.408 1.06-.408 1.634 0 1.15.408 2.073 1.226 2.77.848.696 2.044 1.135 3.587 1.316v.09c-.635.394-1.286.788-1.952 1.18-.635.425-1.226.864-1.77 1.318-.515.484-.954.983-1.317 1.498-.334.514-.5 1.09-.5 1.725 0 1.726.908 3.074 2.725 4.042 1.846 1 4.42 1.5 7.718 1.5 1.728 0 3.302-.244 4.724-.728 1.453-.454 2.71-1.09 3.77-1.907s1.875-1.77 2.45-2.86c.606-1.06.91-2.18.91-3.36 0-.91-.168-1.74-.5-2.497-.303-.726-.758-1.377-1.363-1.953-.604-.574-1.33-1.028-2.18-1.36-.846-.334-1.8-.5-2.86-.5h-7.264c-.515 0-1.044-.03-1.59-.09-.544-.062-1.043-.183-1.497-.365-.456-.18-.834-.424-1.137-.726-.303-.333-.454-.74-.454-1.226 0-.605.287-1.105.86-1.498.576-.394 1.35-.62 2.317-.68.606 0 1.12.03 1.544.09.456.06.894.09 1.318.09 2.936 0 5.237-.59 6.902-1.77 1.665-1.21 2.498-3.012 2.498-5.403 0-.97-.167-1.756-.5-2.362-.303-.605-.68-1.256-1.135-1.952l.182-.182c.363.212.772.454 1.226.726.455.243.893.47 1.317.68.454.214.863.395 1.226.547.364.15.636.227.818.227.454 0 .833-.167 1.136-.5.333-.363.5-.772.5-1.226" fill="#FFF101"/><g transform="translate(0 .113)"><mask id="b" fill="#fff"><use xlink:href="#a"/></mask><path d="M83.642 30.907c1.692 0 3.064-1.37 3.064-3.063 0-1.692-1.372-3.064-3.064-3.064-1.693 0-3.064 1.372-3.064 3.064s1.37 3.063 3.064 3.063M82.844 22.227h1.516s-.048-3.478.91-8.233c.957-4.755 1.873-8.275 1.404-10.85C86.19.494 84.79.154 83.578.117c-1.213-.036-2.722.787-3.096 2.9-.503 2.84.634 6.956 1.34 10.977.706 4.02 1.022 8.233 1.022 8.233" fill="#FFF101" mask="url(#b)"/></g><path d="M53.653 5.895c.096.054.29.107.485.107.47 0 .69-.246.69-.533 0-.242-.142-.4-.444-.51-.22-.085-.317-.133-.317-.242 0-.09.08-.165.25-.165.166 0 .288.048.357.08l.086-.31c-.1-.048-.244-.088-.437-.088-.403 0-.647.224-.647.516 0 .25.185.407.47.506.205.073.286.134.286.24 0 .112-.093.186-.27.186-.166 0-.326-.053-.43-.107l-.08.32zm-.657.08h.388V4.262h-.388v1.71zm-.338-1.04h-.63V4.58h.668v-.317H51.64v1.71h1.09v-.316h-.702V5.25h.63v-.314zm-2.14-.385c.027-.005.08-.013.175-.013.177.003.284.082.284.24 0 .15-.114.245-.307.245h-.153V4.55zm-.384 1.424h.383v-.672h.117c.158.002.23.06.277.273.052.21.093.348.12.4h.396c-.033-.067-.086-.29-.14-.483-.042-.158-.108-.272-.228-.32v-.008c.147-.053.302-.202.302-.42 0-.158-.056-.278-.157-.36-.122-.095-.3-.134-.554-.134-.206 0-.392.016-.516.036v1.688zm-2.247-1.71v.953c0 .546.254.785.685.785.447 0 .714-.25.714-.78v-.96H48.9v.986c0 .302-.112.444-.315.444-.198 0-.31-.15-.31-.444v-.985h-.388zm-1.074.278c.267 0 .414.265.414.57 0 .334-.15.583-.412.583-.26 0-.416-.236-.416-.57 0-.334.15-.583.413-.583zm.01-.307c-.505 0-.833.384-.833.896 0 .49.298.872.805.872.5 0 .84-.34.84-.9 0-.473-.286-.867-.812-.867zM45.36 5.34c0 .266-.1.34-.264.34-.076 0-.144-.013-.198-.03l-.043.312c.077.025.193.04.282.04.376 0 .61-.17.61-.658v-1.08h-.386V5.34zM55.408 7.284c.028-.005.08-.012.175-.012.178.002.284.08.284.238 0 .15-.114.246-.307.246h-.152v-.472zm-.384 1.424h.384v-.673h.116c.158.003.232.06.277.275.052.21.092.347.12.398h.397c-.034-.066-.087-.29-.14-.482-.043-.157-.11-.272-.228-.32v-.008c.146-.053.3-.203.3-.42 0-.158-.055-.278-.157-.36-.122-.095-.3-.134-.553-.134-.206 0-.39.015-.516.036v1.688zm-.338-1.038h-.63v-.355h.67v-.318h-1.058v1.71h1.092v-.316h-.703v-.405h.63V7.67zm-1.74 1.038h.387v-1.71h-.388v1.71zm-1.75-1.71v1.71h.387v-.716h.638v.716h.387v-1.71h-.386v.657h-.637v-.658h-.388zm-1.91 1.71v-.515c0-.28-.005-.52-.015-.746l.008-.003c.084.2.196.42.297.604l.366.66h.407v-1.71h-.355v.497c0 .26.008.49.033.716h-.008c-.076-.192-.177-.405-.28-.586l-.355-.627h-.452v1.71h.356zm-1.08 0h.39v-1.71h-.39v1.71zm-.3-.98h-.64v.302h.265v.36c-.03.014-.1.024-.19.024-.317 0-.537-.21-.537-.56 0-.372.243-.555.566-.555.187 0 .304.032.398.073l.08-.31c-.083-.04-.253-.084-.474-.084-.56 0-.975.325-.978.893-.002.25.084.475.242.622.157.153.383.23.695.23.227 0 .453-.055.572-.095v-.9zm-1.77-.058h-.628v-.355h.668v-.318H45.12v1.71h1.09v-.316h-.702v-.405h.63V7.67zm-2.167.282h.13c.194 0 .35.068.35.24 0 .18-.156.247-.33.247-.067 0-.113 0-.15-.006v-.482zm0-.676c.032-.004.08-.01.164-.01.175 0 .274.07.274.198 0 .127-.11.21-.312.21h-.127v-.398zM43.585 8.7c.086.014.228.026.418.026.34 0 .55-.056.674-.155.106-.085.177-.207.177-.362 0-.22-.145-.368-.34-.42V7.78c.193-.07.282-.214.282-.366 0-.155-.087-.272-.206-.335-.123-.073-.268-.096-.504-.096-.193 0-.4.015-.5.036V8.7z" fill="#32281A"/></g></svg>