<svg width="114" height="41" viewBox="0 0 114 41" xmlns="http://www.w3.org/2000/svg"><title>Fill 5</title><path d="M22.838 21.555c0-3.488-.66-6.15-1.98-7.987-1.318-1.837-3.223-2.756-5.716-2.756-1.435 0-2.743.348-3.924 1.042-1.18.694-2.395 1.66-3.64 2.895V0H0v40.12h7.577V19.912c.727-.592 1.41-1.024 2.05-1.294.64-.272 1.27-.408 1.896-.408.83 0 1.49.14 1.984.42.494.28.872.74 1.134 1.383.22.54.368 1.383.447 2.525.08 1.143.12 2.29.12 3.44v14.14h7.63V21.554zm23.466-6.808c-2.198-2.7-5.29-4.052-9.28-4.052-3.976 0-7.067 1.342-9.27 4.026-2.205 2.685-3.308 6.398-3.308 11.14 0 4.69 1.103 8.387 3.307 11.09 2.204 2.7 5.295 4.05 9.27 4.05 4.004 0 7.1-1.35 9.29-4.05 2.19-2.703 3.286-6.4 3.286-11.09 0-4.707-1.1-8.412-3.296-11.113zm-4.84 15.42c-.23 1.026-.57 1.903-1.017 2.63-.376.61-.878 1.068-1.507 1.373-.628.305-1.245.458-1.852.458-.737 0-1.41-.153-2.015-.458-.607-.305-1.112-.788-1.517-1.448-.39-.644-.708-1.504-.953-2.58-.246-1.075-.368-2.486-.368-4.23 0-1.746.13-3.194.39-4.347.26-1.152.606-2.058 1.04-2.72.462-.694.967-1.164 1.516-1.41.55-.245 1.164-.368 1.843-.368.722 0 1.365.14 1.928.42.564.28 1.07.775 1.518 1.486.42.678.747 1.58.986 2.707.238 1.127.358 2.537.358 4.23 0 1.814-.117 3.233-.348 4.258zM88.13 40.12V21.554c0-2.032-.17-3.678-.51-4.94-.34-1.26-.85-2.35-1.527-3.263-.62-.847-1.38-1.482-2.274-1.905-.896-.423-1.906-.635-3.032-.635-1.33 0-2.64.428-3.93 1.283-1.293.855-2.668 2.078-4.126 3.67-.594-1.643-1.456-2.88-2.586-3.71-1.13-.828-2.44-1.243-3.933-1.243-1.376 0-2.615.348-3.716 1.042-1.1.694-2.275 1.66-3.52 2.895v-3.174H51.4V40.12h7.577V19.912c.566-.457 1.147-.854 1.743-1.193.595-.338 1.205-.508 1.83-.508.813 0 1.45.14 1.906.42.458.28.796.723 1.014 1.332.218.61.352 1.4.403 2.373.05.973.076 2.154.076 3.542v14.24h7.63V19.912c.662-.54 1.275-.96 1.837-1.257.562-.295 1.13-.444 1.708-.444.822 0 1.46.14 1.914.42.453.28.788.723 1.004 1.332.217.61.346 1.396.39 2.36.043.965.065 2.15.065 3.555v14.24h7.63zm19.084.546c.875-.144 1.724-.344 2.548-.598.897-.254 1.6-.504 2.115-.75.513-.246 1.08-.514 1.702-.802v-7.354h-.805c-.333.29-.765.62-1.293.995-.53.374-1.105.723-1.728 1.045-.71.375-1.492.676-2.347.905-.855.23-1.724.344-2.607.344-1.03 0-1.98-.112-2.848-.34-.87-.23-1.63-.606-2.28-1.13-.668-.524-1.204-1.23-1.61-2.118-.405-.888-.644-1.992-.716-3.31H114v-3.205c0-4.39-.94-7.762-2.818-10.118-1.88-2.357-4.68-3.535-8.41-3.535-4.103 0-7.297 1.39-9.58 4.168-2.283 2.778-3.424 6.496-3.424 11.154 0 4.76 1.225 8.428 3.676 11.003 2.45 2.575 5.974 3.863 10.572 3.863 1.257 0 2.323-.073 3.198-.217zm-9.89-18.49c.087-1.774.548-3.177 1.382-4.208.833-1.03 1.99-1.547 3.47-1.547 1.45 0 2.527.49 3.23 1.472.705.98 1.078 2.41 1.122 4.285h-9.204z" fill="#DB3046" fill-rule="evenodd"/></svg>