<svg xmlns="http://www.w3.org/2000/svg" width="230" height="44" viewBox="117.772 23.055 230 44"><g fill="#E40900"><path d="M140.02 41.442h-14.03v-8.934h14.603v-6.536h-22.29v41.222l7.687-.07v-19.24h14.03M133.232 67.23h8.284l4.753-10.052h17.18l4.755 10.016h8.22L154.83 22.88l-21.598 44.35zm15.893-16.638l5.604-11.48 5.603 11.48h-11.208zM176.972 25.972h7.473v41.253h-7.473zM214.017 38.004c0-9.98-9.98-12.025-13.533-12.025h-11.627v41.25h7.472V50.996l12.632 16.23h8.957L204.724 49.9c-.003 0 9.292-1.914 9.292-11.898zm-17.69 6.813V32.184s10.595-1.085 10.595 6.32c0 7.402-10.596 6.313-10.596 6.313zM226.125 25.972h-7.862V67.23h20.302v-7h-12.44M239.597 67.23h8.002l4.577-10.01h17.713l4.443 10.01h7.86l-21.298-44.07-21.298 44.07zm27.35-16.578h-11.76l5.882-12.24 5.878 12.24zM307.24 29.198c-5.84-4.346-24.587-3.19-24.587-3.19v41.22h6.25c23.094 0 27.844-12.357 27.844-20.304 0-7.95-3.668-13.377-9.508-17.726zm-16.915 31.107V32.8s19.56-1.97 19.56 13.752c0 15.724-19.56 13.753-19.56 13.753zM338.075 25.868l-9.103 15.625-8.897-15.625h-9.646l14.534 23.234-.135 18.127h8.49V48.894l13.92-23.027"/></g></svg>