<svg xmlns="http://www.w3.org/2000/svg" width="278" height="80" viewBox="0 0 278 80"><g fill="#1ABDDD"><path d="M113.36 42.452c.006 2.402-.337 4.574-1.028 6.514-.692 1.94-1.667 3.607-2.92 5.006-1.257 1.396-2.755 2.477-4.497 3.236-1.74.762-3.64 1.143-5.69 1.15-2.055.006-3.953-.367-5.7-1.117-1.745-.75-3.25-1.82-4.513-3.212-1.263-1.39-2.246-3.053-2.948-4.99-.702-1.936-1.058-4.104-1.064-6.506-.007-2.36.336-4.523 1.028-6.48.69-1.958 1.665-3.638 2.92-5.035 1.254-1.4 2.753-2.478 4.495-3.238 1.74-.762 3.638-1.145 5.692-1.15 2.053-.006 3.952.366 5.697 1.117 1.746.75 3.25 1.82 4.514 3.213 1.262 1.392 2.246 3.064 2.95 5.017.702 1.956 1.057 4.114 1.064 6.475zm-5.637.016c-.01-3.406-.783-6.105-2.318-8.1-1.536-1.988-3.622-2.98-6.255-2.974-2.637.008-4.716 1.012-6.24 3.01-1.526 2-2.283 4.704-2.273 8.112.01 3.408.782 6.11 2.318 8.102 1.536 1.99 3.62 2.982 6.255 2.975 2.635-.006 4.715-1.01 6.24-3.01 1.525-1.998 2.283-4.705 2.273-8.115zM116.36 28.156c1.238-.312 2.885-.647 4.938-1.002 2.053-.354 4.415-.535 7.088-.543 2.4-.006 4.398.33 5.988 1.003 1.59.672 2.86 1.618 3.814 2.835.953 1.22 1.625 2.68 2.018 4.383.39 1.704.592 3.583.598 5.636l.047 16.97-5.403.015-.045-15.806c-.004-1.86-.137-3.447-.39-4.766-.257-1.314-.677-2.38-1.26-3.19-.583-.813-1.36-1.4-2.33-1.766-.97-.365-2.17-.547-3.604-.543-.58 0-1.18.022-1.8.062-.62.04-1.212.09-1.772.15-.562.06-1.066.128-1.51.207-.447.08-.766.138-.96.176l.07 25.513-5.403.013-.083-29.347z"/></g><path fill="#1ABDDD" d="M40.064 5.162c-9.814 0-18.4 3.63-24.935 10.44-4.523-.734-8.91 2.138-9.978 6.666-.623 2.64.017 5.285 1.523 7.3 1.195 1.6 2.935 2.805 5.03 3.298.74.175 1.48.24 2.21.226 3.92-.08 7.446-2.783 8.39-6.776.497-2.107.188-4.212-.718-6 4.947-4.74 11.288-7.255 18.478-7.255C54.997 13.06 67.1 25.17 67.1 40.097c0 14.935-12.103 27.035-27.035 27.035-11.484 0-21.288-7.16-25.207-17.258-.98-2.525-1.59-5.234-1.768-8.062-.033-.506-.054-1.015-.057-1.53 0-.062-.004-.123-.004-.185 0-.233.02-.46.024-.69l-.292.035c-.983.122-1.856.28-2.668.483-1.866.468-3.505 1.265-4.89 2.35.022.366.048.727.082 1.086.414 4.455 1.665 8.663 3.592 12.476l.967 1.78C15.893 68.03 27.157 75.03 40.065 75.03 59.36 75.03 75 59.394 75 40.096c0-19.29-15.64-34.934-34.936-34.934z"/><path fill="#1ABDDD" d="M54.348 31.43c-.457-1.818-1.222-3.387-2.295-4.71s-2.53-2.343-4.368-3.066c-1.838-.72-4.14-1.086-6.91-1.086-2.725 0-5.327.196-7.805.59-2.48.392-4.503.816-6.073 1.27v31.477l8.778-.01-.002-25.55.392-.057c.586-.084 1.262-.158 2.01-.22.746-.062 1.467-.094 2.145-.094 2.306 0 3.916.698 4.786 2.072.84 1.326 1.247 3.473 1.247 6.564v17.286l8.775.01V37.5c0-2.23-.227-4.254-.68-6.073z"/><g><g fill="#1ABDDD"><path d="M155.598 16.825c5.994-.018 10.598 1.023 13.812 3.122 3.215 2.1 4.83 5.545 4.844 10.34.014 4.833-1.6 8.327-4.843 10.482-3.24 2.153-7.878 3.24-13.91 3.257l-2.842.008.037 13.455-9.047.025-.11-39.613c1.97-.39 4.058-.668 6.26-.83 2.204-.16 4.138-.243 5.8-.247zm.6 7.712c-.657.002-1.304.024-1.942.063-.637.04-1.188.082-1.652.12l.033 11.6 2.842-.007c3.13-.01 5.487-.44 7.07-1.296 1.583-.854 2.372-2.442 2.366-4.763-.004-1.12-.21-2.048-.617-2.782-.41-.732-.99-1.32-1.746-1.764-.755-.442-1.675-.75-2.758-.92-1.083-.17-2.282-.255-3.597-.25zM189.12 57.97c-2.513-.033-4.553-.298-6.12-.797-1.566-.497-2.808-1.2-3.718-2.105-.91-.905-1.534-2.007-1.865-3.302-.333-1.294-.5-2.753-.505-4.377l-.094-33.582 8.637-1.416.094 33.233c0 .774.06 1.47.18 2.087.116.618.34 1.14.67 1.564.33.425.805.77 1.424 1.04.62.27 1.452.44 2.495.515l-1.2 7.14zM205.633 26.025c2.553-.007 4.68.276 6.383.853 1.703.575 3.068 1.403 4.096 2.482 1.027 1.08 1.756 2.394 2.186 3.938s.648 3.266.654 5.16l.048 17.98c-1.236.274-2.955.598-5.158.972-2.203.373-4.87.564-8.004.573-1.97.005-3.762-.164-5.365-.507-1.607-.344-2.99-.91-4.152-1.7-1.16-.788-2.054-1.82-2.676-3.096-.623-1.273-.937-2.84-.94-4.695-.006-1.776.348-3.285 1.06-4.525.712-1.24 1.665-2.228 2.862-2.966 1.196-.738 2.568-1.273 4.113-1.606 1.546-.332 3.15-.502 4.81-.507 1.122-.002 2.118.044 2.99.138.87.095 1.575.22 2.116.37l-.002-.81c-.004-1.47-.45-2.648-1.344-3.536-.893-.886-2.44-1.327-4.643-1.32-1.47.004-2.92.114-4.35.33-1.432.218-2.667.522-3.71.91l-1.122-6.957c.502-.155 1.13-.322 1.885-.498.754-.177 1.574-.333 2.463-.47s1.826-.258 2.812-.357c.988-.1 1.982-.152 2.988-.155zm.767 25.286c.85-.002 1.662-.022 2.436-.063.773-.04 1.39-.1 1.855-.18l-.02-6.553c-.347-.076-.868-.15-1.565-.228-.695-.075-1.334-.112-1.914-.11-.81.002-1.573.053-2.29.15-.715.1-1.342.285-1.883.558-.54.27-.965.64-1.27 1.104-.312.465-.464 1.045-.462 1.74.004 1.355.46 2.29 1.37 2.81s2.16.776 3.745.773zM222 19.188l8.64-1.416.024 8.99 10.38-.03.02 7.192-10.38.03.03 10.73c.005 1.817.327 3.265.97 4.345.64 1.08 1.926 1.618 3.86 1.612.93-.002 1.884-.092 2.87-.27s1.885-.42 2.695-.73l1.235 6.724c-1.043.43-2.2.8-3.477 1.112-1.275.312-2.84.472-4.697.477-2.356.007-4.31-.307-5.858-.94-1.55-.635-2.79-1.52-3.72-2.657-.93-1.14-1.583-2.52-1.954-4.143-.373-1.623-.56-3.42-.566-5.39L222 19.187zM244.35 42.212c-.008-2.706.4-5.075 1.227-7.107.826-2.033 1.914-3.727 3.264-5.085 1.35-1.356 2.903-2.386 4.66-3.087 1.76-.7 3.565-1.054 5.42-1.06 4.33-.012 7.757 1.304 10.278 3.945 2.52 2.642 3.79 6.534 3.803 11.676.003.503-.017 1.054-.052 1.653-.037.6-.076 1.132-.11 1.596l-19.606.055c.2 1.777 1.033 3.187 2.506 4.227s3.445 1.556 5.922 1.55c1.584-.006 3.14-.154 4.666-.45 1.527-.293 2.773-.654 3.738-1.082l1.18 7.015c-.463.233-1.082.467-1.854.7-.773.235-1.633.44-2.58.617s-1.96.325-3.043.443c-1.082.12-2.166.18-3.248.183-2.747.01-5.134-.39-7.167-1.196-2.03-.807-3.717-1.913-5.055-3.32-1.338-1.408-2.328-3.077-2.973-5.01-.643-1.933-.97-4.02-.975-6.262zm20.29-3.362c-.04-.734-.17-1.45-.382-2.145-.215-.695-.545-1.312-.992-1.854-.445-.54-1.008-.982-1.686-1.328s-1.52-.518-2.523-.515c-.967.003-1.8.17-2.492.5-.695.33-1.275.768-1.738 1.31-.46.544-.818 1.173-1.066 1.888-.25.717-.43 1.442-.544 2.177l11.425-.032z"/></g></g></svg>