<?xml version="1.0" encoding="UTF-8" standalone="no"?><!DOCTYPE svg PUBLIC "-//W3C//DTD SVG 1.1//EN" "http://www.w3.org/Graphics/SVG/1.1/DTD/svg11.dtd"><svg width="169" height="132" viewBox="0 0 169 132" xmlns="http://www.w3.org/2000/svg" xmlns:xlink="http://www.w3.org/1999/xlink"><svg width="48" height="109" viewBox="0 0 48 109" id="arrow_left_carousel" x="48"><title>Artboard 9</title><desc>Created with Sketch.</desc><g fill="none" fill-rule="evenodd"><g><g transform="matrix(-1 0 0 1 48 0)"><path opacity=".5" fill="#000" d="M47.5 0L.302 27.25v54.5L47.5 109z"/><path d="M10 35l19.858 19.82L10 74.64" stroke="#fff" stroke-width="4"/></g></g></g></svg><svg width="48" height="109" viewBox="0 0 48 109" id="arrow_right_carousel"><title>Artboard 9</title><desc>Created with Sketch.</desc><g fill="none" fill-rule="evenodd"><g><g><path opacity=".5" fill="#000" d="M47.5 0L.302 27.25v54.5L47.5 109z"/><path d="M10 35l19.858 19.82L10 74.64" stroke="#fff" stroke-width="4"/></g></g></g></svg><svg width="13" height="13" viewBox="0 0 13 13" id="exit_cross_black" x="13" y="109"><title>Artboard 10</title><desc>Created with Sketch.</desc><g fill="none" fill-rule="evenodd"><g fill="#222"><path d="M13 1.3L11.7 0 6.5 5.2 1.3 0 0 1.3l5.2 5.2L0 11.7 1.3 13l5.2-5.2 5.2 5.2 1.3-1.3-5.2-5.2L13 1.3z"/></g></g></svg><svg width="13" height="13" viewBox="0 0 13 13" id="exit_cross_grey" x="147" y="91"><title>Artboard 10</title><desc>Created with Sketch.</desc><g fill="none" fill-rule="evenodd"><g fill="#bbb"><path d="M13 1.3L11.7 0 6.5 5.2 1.3 0 0 1.3l5.2 5.2L0 11.7 1.3 13l5.2-5.2 5.2 5.2 1.3-1.3-5.2-5.2L13 1.3z"/></g></g></svg><svg width="13" height="13" viewBox="0 0 13 13" id="exit_cross_white" x="134" y="91"><title>Artboard 10</title><desc>Created with Sketch.</desc><g fill="none" fill-rule="evenodd"><g fill="#fff"><path d="M13 1.3L11.7 0 6.5 5.2 1.3 0 0 1.3l5.2 5.2L0 11.7 1.3 13l5.2-5.2 5.2 5.2 1.3-1.3-5.2-5.2L13 1.3z"/></g></g></svg><svg width="73" height="23" viewBox="0 0 73 23" id="logo_onnet" x="96"><title>Artboard 10</title><desc>Created with Sketch.</desc><g fill="none" fill-rule="evenodd"><g fill="#1ABDDC"><g><path d="M35.095 12.664c.002.768-.108 1.463-.33 2.084-.22.62-.532 1.154-.933 1.602-.402.447-.882.793-1.44 1.036-.556.243-1.164.365-1.82.368-.658.002-1.265-.118-1.824-.358-.558-.24-1.04-.583-1.444-1.028-.404-.445-.72-.977-.944-1.597-.224-.618-.338-1.312-.34-2.08-.002-.756.108-1.448.33-2.074.22-.627.532-1.164.933-1.612.402-.447.88-.792 1.44-1.036.556-.243 1.163-.366 1.82-.367.657 0 1.265.118 1.823.358.56.24 1.04.583 1.445 1.028.405.446.72.98.944 1.606.225.626.34 1.316.34 2.072zm-1.804.005c-.002-1.09-.25-1.955-.74-2.593-.492-.636-1.16-.954-2.002-.952-.844.003-1.51.324-1.997.964-.487.638-.73 1.504-.726 2.594.003 1.09.25 1.955.742 2.593.49.637 1.158.954 2 .952.844-.003 1.51-.324 1.998-.964.488-.64.73-1.506.727-2.597zM36.055 8.09c.396-.1.923-.208 1.58-.322.657-.113 1.413-.17 2.27-.173.767-.003 1.406.105 1.915.32.508.215.915.518 1.22.907.305.39.52.858.646 1.403.125.545.19 1.146.19 1.803l.016 5.43-1.73.005-.013-5.058c-.003-.595-.045-1.103-.126-1.525-.082-.42-.217-.76-.403-1.02-.186-.26-.435-.45-.745-.566-.31-.117-.695-.175-1.153-.174-.186 0-.378.008-.576.02-.2.014-.388.03-.567.048-.18.02-.342.04-.484.067-.144.025-.246.044-.307.056l.02 8.166-1.73.004-.025-9.39zM11.64.252c-3.14 0-5.888 1.162-7.98 3.34C2.215 3.358.81 4.277.47 5.726c-.2.845.004 1.69.486 2.336.382.51.94.897 1.61 1.055.237.056.474.077.706.072 1.256-.026 2.384-.89 2.685-2.17.16-.673.06-1.347-.23-1.92 1.584-1.515 3.613-2.32 5.914-2.32 4.78 0 8.652 3.874 8.652 8.65 0 4.78-3.873 8.652-8.65 8.652-3.676 0-6.813-2.29-8.067-5.523-.314-.81-.51-1.676-.566-2.58-.012-.163-.018-.326-.02-.49v-.06c0-.074.006-.146.007-.22l-.093.01c-.315.04-.594.09-.854.155-.597.15-1.122.405-1.564.752.006.117.015.233.026.348.132 1.426.532 2.772 1.15 3.993l.308.57c1.936 3.33 5.54 5.572 9.67 5.572 6.175 0 11.18-5.004 11.18-11.18C22.82 5.26 17.815.253 11.64.253zM16.21 8.657c-.145-.58-.39-1.083-.733-1.506-.343-.423-.81-.75-1.398-.98-.59-.23-1.326-.348-2.212-.348-.872 0-1.705.062-2.498.19-.793.124-1.44.26-1.943.405V16.49l2.81-.003-.002-8.177.126-.018c.188-.027.405-.05.644-.07.24-.02.47-.03.686-.03.738 0 1.254.223 1.532.663.268.424.4 1.11.4 2.1v5.532l2.807.003V10.6c0-.713-.074-1.36-.22-1.943zM44.695 5.557c.594-.173 1.36-.335 2.3-.487.938-.15 1.923-.228 2.956-.23 1.048-.004 1.922.13 2.618.403.697.272 1.25.657 1.658 1.156.408.5.7 1.093.874 1.78.174.688.262 1.455.264 2.3l.02 6.97-3.497.01-.02-6.548c-.002-1.126-.153-1.924-.45-2.393-.3-.47-.856-.702-1.67-.7-.25 0-.516.013-.797.037-.282.025-.533.052-.75.084l.025 9.53-3.496.01-.035-11.923zM56.207 12.674c-.003-.846.125-1.59.383-2.224.26-.636.6-1.167 1.022-1.592.422-.425.91-.747 1.46-.966.55-.22 1.114-.33 1.696-.332 1.355-.004 2.427.408 3.217 1.235.79.827 1.185 2.045 1.19 3.654 0 .157-.005.33-.017.518-.01.187-.023.353-.034.5l-6.138.016c.063.557.324.998.785 1.324.462.325 1.08.486 1.855.485.496-.002.983-.05 1.46-.14.48-.092.87-.205 1.17-.34l.37 2.196c-.145.072-.34.146-.58.22-.242.072-.51.137-.808.192-.296.055-.614.1-.952.14-.34.036-.68.055-1.017.057-.86 0-1.607-.125-2.244-.377-.636-.252-1.164-.6-1.582-1.04-.42-.44-.73-.963-.93-1.567-.202-.605-.304-1.26-.305-1.962zm6.35-1.052c-.01-.23-.05-.453-.12-.672-.066-.217-.17-.41-.31-.58-.138-.17-.314-.308-.527-.416-.212-.108-.475-.162-.79-.16-.302 0-.562.052-.78.156-.218.103-.4.24-.544.41-.144.17-.256.367-.334.59-.078.225-.135.452-.17.682l3.576-.01zM66.166 5.343L68.87 4.9l.008 2.815 3.25-.01.006 2.252-3.25.01.01 3.358c0 .568.102 1.022.303 1.36.2.34.603.507 1.21.505.29 0 .588-.03.897-.084.31-.055.59-.13.844-.23l.387 2.107c-.327.133-.69.25-1.088.347-.4.098-.89.148-1.47.15-.74.002-1.35-.097-1.835-.294-.485-.2-.873-.477-1.165-.832-.29-.357-.495-.79-.61-1.298-.118-.508-.176-1.07-.178-1.688l-.024-8.025z"/></g></g></g></svg><svg width="23" height="21" viewBox="0 0 23 21" id="menu_trigger" x="96" y="70"><title>Group</title><desc>Created with Sketch.</desc><g fill="none" fill-rule="evenodd"><g transform="translate(0 1)"><g><path d="M.53.214h21.364M.53 5.003h21.364" stroke="#1ABDDD" stroke-width="2.2"/><path d="M.53 9.792h21.364" stroke="#1ABDDD" stroke-width="2.2"/><path d="M.435 19.37l1.16-5.937 1.892 4.292 1.96-4.292 1.04 5.937h-.852l-.532-3.333-1.63 3.587-1.585-3.59-.593 3.336h-.86zm10.26-4.74H8.488v1.328h2.144v.783H8.488v1.847h2.21v.783H7.654v-5.522h3.04v.783zm1.093 4.74v-5.897l4.018 4.213v-3.838h.832v5.858l-4.02-4.202v3.866h-.83zm7.002-5.522v3.326c0 .475.077.822.232 1.04.23.318.555.477.974.477.42 0 .747-.158.978-.475.154-.212.232-.56.232-1.04v-3.327h.83v3.555c0 .582-.18 1.06-.54 1.438-.408.42-.908.63-1.5.63-.593 0-1.09-.21-1.495-.63-.36-.376-.542-.855-.542-1.437v-3.555h.832z" fill="#1ABDDD"/></g></g></g></svg><svg width="11" height="14" viewBox="0 0 11 14" id="next_left_arrow_double_active" x="156" y="70"><title>Artboard 10</title><desc>Created with Sketch.</desc><g fill="none" fill-rule="evenodd"><g stroke="#bbb"><g transform="rotate(-180 5 6.5)"><path d="M0 0l6.052 6.232-6.004 6.28M3.026 0L9.08 6.232l-6.006 6.28"/></g></g></g></svg><svg width="11" height="14" viewBox="0 0 11 14" id="next_left_arrow_double_inactive" x="96" y="91"><title>Artboard 10</title><desc>Created with Sketch.</desc><g fill="none" fill-rule="evenodd"><g stroke="#eee"><g transform="rotate(-180 5 7)"><path d="M0 1l6.052 6.232-6.004 6.28M3.026 1L9.08 7.232l-6.006 6.28"/></g></g></g></svg><svg width="8" height="14" viewBox="0 0 8 14" id="next_left_arrow_single_active" x="107" y="91"><title>Artboard 10</title><desc>Created with Sketch.</desc><g fill="none" fill-rule="evenodd"><g stroke="#bbb"><path d="M7.052 13.512L1 7.28 7.004 1"/></g></g></svg><svg width="8" height="14" viewBox="0 0 8 14" id="next_left_arrow_single_inactive" x="115" y="91"><title>Artboard 10</title><desc>Created with Sketch.</desc><g fill="none" fill-rule="evenodd"><g stroke="#eee"><path d="M7.052 13.512L1 7.28 7.004 1"/></g></g></svg><svg width="11" height="14" viewBox="0 0 11 14" id="next_right_arrow_double_active" x="123" y="91"><title>Artboard 10</title><desc>Created with Sketch.</desc><g fill="none" fill-rule="evenodd"><g stroke="#bbb"><g transform="translate(1 1)"><path d="M0 0l6.052 6.232-6.004 6.28M3.026 0L9.08 6.232l-6.006 6.28"/></g></g></g></svg><svg width="11" height="14" viewBox="0 0 11 14" id="next_right_arrow_double_inactive" x="157.67000000000002" y="45"><title>Artboard 10</title><desc>Created with Sketch.</desc><g fill="none" fill-rule="evenodd"><g stroke="#eee"><g transform="translate(1)"><path d="M0 1l6.052 6.232-6.004 6.28M3.026 1L9.08 7.232l-6.006 6.28"/></g></g></g></svg><svg width="8" height="14" viewBox="0 0 8 14" id="next_right_arrow_single_active" x="140" y="70"><title>Artboard 10</title><desc>Created with Sketch.</desc><g fill="none" fill-rule="evenodd"><g stroke="#bbb"><path d="M1 1l6.052 6.232-6.004 6.28"/></g></g></svg><svg width="8" height="14" viewBox="0 0 8 14" id="next_right_arrow_single_inactive" x="148" y="70"><title>Artboard 10</title><desc>Created with Sketch.</desc><g fill="none" fill-rule="evenodd"><g stroke="#eee"><path d="M1 1l6.052 6.232-6.004 6.28"/></g></g></svg><svg width="21" height="21" viewBox="0 0 21 21" id="search_trigger" x="148" y="23"><title>Shape</title><desc>Created with Sketch.</desc><g fill="none" fill-rule="evenodd"><g fill="#1ABDDD"><path d="M20.463 17.72l-4.99-4.99c.753-1.236 1.188-2.687 1.188-4.24 0-4.512-3.91-8.422-8.422-8.422-4.51 0-8.17 3.658-8.17 8.17 0 4.512 3.91 8.422 8.42 8.422 1.5 0 2.906-.408 4.115-1.114l5.016 5.018c.49.49 1.286.49 1.777 0l1.245-1.243c.49-.49.31-1.11-.18-1.6zM2.583 8.236c0-3.123 2.53-5.656 5.653-5.656 3.125 0 5.907 2.784 5.907 5.908 0 3.125-2.53 5.656-5.656 5.656-3.125 0-5.906-2.784-5.905-5.908z"/></g></g></svg><svg width="21" height="21" viewBox="0 0 21 21" id="search_trigger-hover" x="119" y="70"><title>Shape</title><desc>Created with Sketch.</desc><g fill="none" fill-rule="evenodd"><g fill="#fff"><path d="M20.463 17.72l-4.99-4.99c.753-1.236 1.188-2.687 1.188-4.24 0-4.512-3.91-8.422-8.422-8.422-4.51 0-8.17 3.658-8.17 8.17 0 4.512 3.91 8.422 8.42 8.422 1.5 0 2.906-.408 4.115-1.114l5.016 5.018c.49.49 1.286.49 1.777 0l1.245-1.243c.49-.49.31-1.11-.18-1.6zM2.583 8.236c0-3.123 2.53-5.656 5.653-5.656 3.125 0 5.907 2.784 5.907 5.908 0 3.125-2.53 5.656-5.656 5.656-3.125 0-5.906-2.784-5.905-5.908z"/></g></g></svg><svg width="13" height="23" viewBox="0 0 13 23" id="social_facebook" y="109"><title>Shape</title><desc>Created with Sketch.</desc><g fill="none" fill-rule="evenodd"><g transform="translate(-496 -77)" fill="#3B5998"><path d="M499.494 88.772h-2.644V84.74h2.644c0-6.932.29-7.396 8.595-7.396v4.034c-4.378 0-3.968.25-3.968 3.36h3.967v4.034h-3.968v10.756h-4.628V88.772z"/></g></g></svg><svg width="27" height="22" viewBox="0 0 27 22" id="social_googleplus" x="96" y="23"><title>Shape</title><desc>Created with Sketch.</desc><g fill="none" fill-rule="evenodd"><g transform="translate(-658 -78)" fill="#E2483E"><path d="M672.988 78.024h-6.92c-3.102 0-6.02 2.27-6.02 4.9 0 2.687 2.113 4.856 5.27 4.856.22 0 .432-.004.64-.02-.204.38-.35.806-.35 1.25 0 .746.415 1.35.94 1.846-.396 0-.78.01-1.198.01-3.842 0-6.8 2.364-6.8 4.816 0 2.414 3.242 3.924 7.085 3.924 4.38 0 6.8-2.4 6.8-4.815 0-1.935-.592-3.094-2.42-4.343-.626-.428-1.822-1.468-1.822-2.08 0-.715.212-1.068 1.328-1.91 1.146-.864 1.956-2.08 1.956-3.49 0-1.682-.776-3.32-2.23-3.862h2.193l1.548-1.08zm-2.417 16.35c.055.225.086.455.086.69 0 1.95-1.302 3.475-5.035 3.475-2.655 0-4.573-1.626-4.573-3.576 0-1.912 2.38-3.503 5.035-3.475.62.005 1.197.102 1.72.265 1.443.97 2.477 1.516 2.77 2.62zm-4.25-7.275c-1.784-.053-3.478-1.927-3.786-4.19-.308-2.26.888-3.99 2.67-3.94 1.783.052 3.477 1.867 3.785 4.128.307 2.262-.89 4.053-2.67 4zm13.716-4.286v-4.79h-1.653v4.79h-4.958v1.596h4.958v4.79h1.653v-4.79h4.958v-1.596h-4.958z"/></g></g></svg><svg width="23.67" height="23.67" viewBox="0 0 23.67 23.67" id="social_instagram" x="134" y="45"><path fill="#517FA4" d="M20.71 23.67H2.96c-.818 0-1.515-.29-2.093-.867C.29 22.226 0 21.528 0 20.71V2.96C0 2.14.29 1.444.867.866 1.445.29 2.142 0 2.96 0h17.75c.818 0 1.515.29 2.093.867.578.578.867 1.275.867 2.092v17.75c0 .818-.29 1.515-.867 2.093-.577.578-1.275.867-2.092.867zM11.836 8.876c-.816 0-1.514.29-2.092.867-.578.578-.867 1.275-.867 2.092s.29 1.514.867 2.092c.578.578 1.275.867 2.092.867.817 0 1.514-.29 2.092-.867.578-.578.867-1.275.867-2.092s-.29-1.514-.867-2.092c-.578-.577-1.275-.867-2.092-.867zm8.876-5.178c0-.2-.072-.374-.218-.52-.146-.146-.32-.22-.52-.22h-2.96c-.2 0-.373.074-.52.22-.145.146-.22.32-.22.52v2.96c0 .2.074.373.22.52.147.145.32.22.52.22h2.96c.2 0 .373-.074.52-.22.146-.147.22-.32.22-.52v-2.96zm0 7.398c0-.2-.072-.374-.218-.52-.146-.147-.32-.22-.52-.22h-1.48c-.2 0-.374.073-.52.22-.147.145-.22.32-.22.52v.74c0 1.633-.578 3.027-1.734 4.183s-2.55 1.733-4.184 1.733c-1.633 0-3.028-.578-4.184-1.734s-1.734-2.552-1.734-4.185v-.74c0-.2-.073-.373-.22-.52-.145-.146-.32-.22-.52-.22H3.698c-.2 0-.374.074-.52.22-.146.146-.22.32-.22.52v8.877c0 .2.074.374.22.52.146.147.32.22.52.22H19.97c.202 0 .375-.073.522-.22.146-.145.22-.32.22-.52v-8.876z"/></svg><svg width="18" height="25" viewBox="0 0 18 25" id="social_pinterest" x="96" y="45"><title>Shape</title><desc>Created with Sketch.</desc><g fill="none" fill-rule="evenodd"><g transform="translate(-416 -76)" fill="#D01A2B"><path d="M423.337 92.233c-.602 3.24-1.338 6.345-3.518 7.967-.673-4.896.988-8.573 1.76-12.476-1.316-2.27.157-6.838 2.93-5.712 3.413 1.385-2.955 8.438 1.32 9.32 4.463.92 6.285-7.94 3.518-10.823-4-4.162-11.64-.096-10.7 5.86.227 1.458 1.695 1.9.585 3.91-2.56-.583-3.323-2.652-3.225-5.412.16-4.517 3.958-7.68 7.77-8.117 4.82-.552 9.343 1.816 9.967 6.465.704 5.247-2.175 10.93-7.33 10.52-1.396-.11-1.983-.82-3.078-1.502z"/></g></g></svg><svg width="25" height="21" viewBox="0 0 25 21" id="social_twitter" x="123" y="23"><title>Shape</title><desc>Created with Sketch.</desc><g fill="none" fill-rule="evenodd"><g transform="translate(-571 -78)" fill="#00AEE8"><path d="M592.66 81.323c1.082-.668 1.823-1.645 2.22-2.93-1.034.634-2.1 1.06-3.2 1.277-.97-1.102-2.19-1.653-3.655-1.653-1.385 0-2.568.513-3.547 1.54-.98 1.027-1.47 2.267-1.47 3.72 0 .484.04.885.12 1.202-2.054-.118-3.98-.66-5.78-1.63-1.8-.968-3.33-2.262-4.587-3.882-.46.835-.692 1.72-.692 2.655 0 1.904.725 3.365 2.174 4.384-.75-.017-1.545-.234-2.39-.652 0 1.303.4 2.417 1.195 3.394.797.976 1.776 1.58 2.94 1.815-.463.134-.87.2-1.22.2-.207 0-.517-.033-.93-.1.333 1.052.927 1.92 1.778 2.605.852.685 1.82 1.035 2.903 1.052-1.847 1.503-3.926 2.254-6.235 2.254-.414 0-.812-.025-1.194-.075 2.356 1.57 4.92 2.356 7.69 2.356 1.784 0 3.456-.297 5.017-.89 1.56-.592 2.898-1.386 4.013-2.38 1.115-.993 2.075-2.136 2.88-3.43.803-1.295 1.4-2.647 1.79-4.058.39-1.41.586-2.818.586-4.22 0-.3-.008-.526-.024-.677 1.003-.75 1.84-1.66 2.508-2.73-.892.42-1.855.703-2.89.853z"/></g></g></svg><svg width="20" height="24" viewBox="0 0 20 24" id="social_youtube" x="114" y="45"><title>Shape Copy 5</title><desc>Created with Sketch Beta.</desc><g fill="none" fill-rule="evenodd"><g transform="translate(-457 -118)" fill="#b00"><path d="M457.076 135.09c0-2.09.116-3.652.348-4.688.125-.526.384-.968.777-1.325.393-.358.853-.567 1.38-.63 1.633-.178 4.107-.268 7.42-.268 3.31 0 5.79.09 7.432.267.518.063.975.272 1.373.63.398.357.654.8.77 1.325.232 1 .348 2.563.348 4.688 0 2.09-.116 3.652-.348 4.688-.125.526-.384.968-.777 1.326-.392.357-.848.562-1.366.616-1.643.187-4.12.28-7.433.28-3.313 0-5.79-.093-7.434-.28-.518-.054-.975-.26-1.373-.616-.398-.358-.654-.8-.77-1.326-.232-1-.348-2.563-.348-4.688zm1.486-3.335h1.407v7.62h1.34v-7.62h1.432v-1.26h-4.18v1.26zM460.277 118h1.42l.95 3.523.91-3.522h1.366l-1.62 5.344v3.63h-1.34v-3.63c-.126-.66-.398-1.607-.817-2.84-.33-.92-.62-1.754-.87-2.504zm2.638 19.996c0 .437.036.763.107.978.107.33.366.495.777.495.427 0 .882-.273 1.365-.818v.724h1.192v-6.616h-1.192v5.062c-.268.375-.523.562-.764.562-.16 0-.253-.094-.28-.28-.01-.028-.014-.184-.014-.47v-4.875h-1.192v5.235zm2.023-13.19v-2.345c0-.713.125-1.235.375-1.566.34-.455.808-.683 1.407-.683.616 0 1.09.23 1.42.684.25.33.374.853.374 1.567v2.345c0 .723-.125 1.25-.375 1.58-.33.456-.804.683-1.42.683-.6 0-1.068-.227-1.407-.683-.25-.34-.375-.866-.375-1.58zm1.205.226c0 .625.192.937.576.937.383 0 .575-.313.575-.938v-2.812c0-.616-.192-.924-.576-.924-.385 0-.577.308-.577.924v2.812zm1.26 14.344h1.19v-.643c.403.49.818.736 1.246.736.482 0 .8-.246.95-.737.08-.24.12-.688.12-1.34v-2.638c0-.652-.04-1.094-.12-1.326-.152-.5-.47-.75-.95-.75-.447 0-.862.24-1.246.722v-2.906h-1.192v8.88zm1.19-1.286v-4.03c.197-.198.398-.296.603-.296.348 0 .522.3.522.898v2.825c0 .6-.174.898-.522.898-.205 0-.406-.098-.603-.295zm.91-12.523v-5.276h1.22v4.916c0 .295.005.45.014.47.027.195.12.293.28.293.242 0 .497-.193.765-.577v-5.102h1.22v6.684h-1.22v-.736c-.473.553-.933.83-1.38.83-.41 0-.674-.165-.79-.495-.07-.214-.107-.55-.107-1.005zm2.345 11.665c0 .705.13 1.223.388 1.554.348.455.83.683 1.446.683.643 0 1.125-.237 1.446-.71.16-.242.254-.483.28-.724.02-.08.028-.34.028-.777v-.175h-1.22c0 .456-.008.728-.026.817-.062.32-.24.482-.535.482-.41 0-.617-.308-.617-.924v-1.165h2.398v-1.38c0-.704-.12-1.222-.362-1.553-.348-.455-.82-.683-1.42-.683-.606 0-1.084.227-1.433.682-.25.33-.374.848-.374 1.554v2.317h.002zm1.192-1.94v-.618c0-.606.2-.91.603-.91.4 0 .602.304.602.91v.617h-1.205z"/></g></g></svg><svg width="8" height="8" viewBox="0 0 8 8" id="tick" x="157.67000000000002" y="59"><title>Artboard 10</title><desc>Created with Sketch.</desc><g fill="none" fill-rule="evenodd"><g fill="#000"><g transform="translate(0 -3)"><path d="M8 4.522L2.757 10 0 7.41l.657-.62 2.067 1.942L7.318 3.94 8 4.52z"/></g></g></g></svg></svg>